<?xml version="1.0" encoding="UTF-8" standalone="no"?>
<svg
   width="128.66449mm"
   height="138.17259mm"
   version="1.1"
   viewBox="0 0 455.91175 489.60291"
   id="svg36"
   sodipodi:docname="sciareto_logo.svg"
   inkscape:version="1.1.2 (0a00cf5339, 2022-02-04)"
   xmlns:inkscape="http://www.inkscape.org/namespaces/inkscape"
   xmlns:sodipodi="http://sodipodi.sourceforge.net/DTD/sodipodi-0.dtd"
   xmlns="http://www.w3.org/2000/svg"
   xmlns:svg="http://www.w3.org/2000/svg"
   xmlns:rdf="http://www.w3.org/1999/02/22-rdf-syntax-ns#"
   xmlns:cc="http://creativecommons.org/ns#"
   xmlns:dc="http://purl.org/dc/elements/1.1/">
  <defs
     id="defs40">
    <filter
       style="color-interpolation-filters:sRGB"
       inkscape:label="Drop Shadow"
       id="filter1353"
       x="-0.12888568"
       y="-0.072118868"
       width="1.3497581"
       height="1.1938052">
      <feFlood
         flood-opacity="1"
         flood-color="rgb(0,0,0)"
         result="flood"
         id="feFlood1343" />
      <feComposite
         in="flood"
         in2="SourceGraphic"
         operator="in"
         result="composite1"
         id="feComposite1345" />
      <feGaussianBlur
         in="composite1"
         stdDeviation="12.3239"
         result="blur"
         id="feGaussianBlur1347" />
      <feOffset
         dx="21.1096"
         dy="20.3286"
         result="offset"
         id="feOffset1349" />
      <feComposite
         in="offset"
         in2="offset"
         operator="atop"
         result="composite2"
         id="feComposite1351" />
    </filter>
  </defs>
  <sodipodi:namedview
     pagecolor="#ffffff"
     bordercolor="#666666"
     borderopacity="1"
     objecttolerance="10"
     gridtolerance="10"
     guidetolerance="10"
     inkscape:pageopacity="0"
     inkscape:pageshadow="2"
     inkscape:window-width="1920"
     inkscape:window-height="1016"
     id="namedview38"
     showgrid="false"
     inkscape:zoom="0.89061866"
     inkscape:cx="86.456756"
     inkscape:cy="264.42293"
     inkscape:window-x="1318"
     inkscape:window-y="27"
     inkscape:window-maximized="1"
     inkscape:current-layer="svg36"
     showguides="true"
     inkscape:guide-bbox="true"
     inkscape:document-rotation="0"
     inkscape:pagecheckerboard="0"
     inkscape:document-units="mm"
     fit-margin-top="0"
     fit-margin-left="0"
     fit-margin-right="0"
     fit-margin-bottom="0" />
  <metadata
     id="metadata2">
    <rdf:RDF>
      <cc:Work
         rdf:about="">
        <dc:format>image/svg+xml</dc:format>
        <dc:type
           rdf:resource="http://purl.org/dc/dcmitype/StillImage" />
      </cc:Work>
    </rdf:RDF>
  </metadata>
  <g
     transform="matrix(0.54253,0,0,0.54253,193.15016,152.64815)"
     fill="none"
     stroke="#00ffff"
     stroke-width="17.28"
     id="g18"
     style="stroke-linecap:round;stroke-linejoin:round" />
  <g
     id="g997"
     transform="translate(3.7501148,-7.5002296)">
    <path
       id="rect990-3"
       style="fill:#000000;fill-opacity:1;stroke:none;stroke-width:6.81372;stroke-linecap:round;stroke-linejoin:round;stroke-miterlimit:4;stroke-dasharray:none;stroke-opacity:1;filter:url(#filter1353)"
       d="m 99.049883,40.828295 a 8.9120111,8.4724555 0 0 1 7.936017,4.807938 l 43.63394,86.537607 h 80.74824 a 8.9120111,8.4724555 0 0 1 8.91211,8.4718 8.9120111,8.4724555 0 0 1 -8.91211,8.47358 h -72.20393 l 12.07378,23.94421 h 49.38612 a 8.9120111,8.4724555 0 0 1 8.9121,8.4718 8.9120111,8.4724555 0 0 1 -8.9121,8.47356 h -40.8436 l 5.96971,11.8386 h 25.19789 a 8.9120111,8.4724555 0 0 1 8.9121,8.47181 8.9120111,8.4724555 0 0 1 -8.9121,8.47356 h -24.53302 l -15.8243,27.07405 h 0.009 l 15.84767,27.11475 h 24.53247 a 8.9120111,8.4724555 0 0 1 8.91211,8.47355 8.9120111,8.4724555 0 0 1 -8.91211,8.4718 h -25.19788 l -5.9697,11.83862 h 40.84358 a 8.9120111,8.4724555 0 0 1 8.91211,8.47355 8.9120111,8.4724555 0 0 1 -8.91211,8.47181 h -49.38612 l -12.07377,23.94421 h 72.20393 a 8.9120111,8.4724555 0 0 1 8.91211,8.47357 8.9120111,8.4724555 0 0 1 -8.91211,8.4718 h -80.74823 l -43.63395,86.53761 A 8.9120111,8.4724555 0 0 1 95.129619,450.11492 8.9120111,8.4724555 0 0 1 90.945895,438.8121 L 136.31981,348.82461 81.004673,254.1724 19.808221,254.41642 a 8.9120111,8.4724555 0 0 1 -8.94923,-8.43644 8.9120111,8.4724555 0 0 1 0,-0.0725 h -0.032 a 8.9120111,8.4724555 0 0 1 0,-0.1132 8.9120111,8.4724555 0 0 1 8.94925,-8.43645 l 61.196452,0.24403 55.315127,-94.65218 -45.373915,-89.987526 a 8.9120111,8.4724555 0 0 1 4.183734,-11.30281 8.9120111,8.4724555 0 0 1 3.952094,-0.831091 z m 46.682437,120.850985 -44.41727,76.00396 24.19883,0.0973 31.4523,-53.81919 z m -20.18661,92.31452 -24.19885,0.0973 44.41731,76.004 11.23384,-22.28204 z" />
    <path
       id="rect990"
       style="fill:#000000;fill-opacity:1;stroke:none;stroke-width:2.20755;stroke-linecap:round;stroke-linejoin:round;stroke-miterlimit:4;stroke-dasharray:none;stroke-opacity:1"
       d="m 335.49932,42.703355 a 8.9120111,8.4724555 0 0 0 -7.93602,4.807938 l -43.63394,86.537587 h -80.74825 a 8.9120111,8.4724555 0 0 0 -8.9121,8.4718 8.9120111,8.4724555 0 0 0 8.9121,8.47359 h 72.20394 l -12.07378,23.9442 h -49.38614 a 8.9120111,8.4724555 0 0 0 -8.91209,8.47179 8.9120111,8.4724555 0 0 0 8.91209,8.47357 h 40.84362 l -5.96971,11.83861 h -25.19792 a 8.9120111,8.4724555 0 0 0 -8.9121,8.47181 8.9120111,8.4724555 0 0 0 8.9121,8.47356 h 24.53305 l 15.8243,27.07405 h -0.009 l -15.84767,27.11475 h -24.5325 a 8.9120111,8.4724555 0 0 0 -8.91211,8.47355 8.9120111,8.4724555 0 0 0 8.91211,8.4718 h 25.19791 l 5.9697,11.83862 h -40.8436 a 8.9120111,8.4724555 0 0 0 -8.9121,8.47355 8.9120111,8.4724555 0 0 0 8.9121,8.47181 h 49.38614 l 12.07377,23.94421 h -72.20394 a 8.9120111,8.4724555 0 0 0 -8.9121,8.47357 8.9120111,8.4724555 0 0 0 8.9121,8.4718 h 80.74824 l 43.63395,86.53761 a 8.9120111,8.4724555 0 0 0 11.88812,3.97684 8.9120111,8.4724555 0 0 0 4.18373,-11.30282 l -45.37393,-89.98749 55.31517,-94.65221 61.19645,0.24402 a 8.9120111,8.4724555 0 0 0 8.94923,-8.43644 8.9120111,8.4724555 0 0 0 0,-0.0725 h 0.032 a 8.9120111,8.4724555 0 0 0 0,-0.1132 8.9120111,8.4724555 0 0 0 -8.94925,-8.43645 l -61.19645,0.24403 -55.31516,-94.65219 45.37393,-89.987506 a 8.9120111,8.4724555 0 0 0 -4.18374,-11.302811 8.9120111,8.4724555 0 0 0 -3.9521,-0.83109 z m -46.68244,120.850965 44.41727,76.00397 -24.19883,0.0973 -31.4523,-53.81921 z m 20.18661,92.31453 24.19885,0.0973 -44.41731,76.004 -11.23384,-22.28204 z" />
  </g>
</svg>
