<?xml version="1.0" encoding="UTF-8"?>
<svg xmlns:cc="http://creativecommons.org/ns#" xmlns:dc="http://purl.org/dc/elements/1.1/"
     xmlns:rdf="http://www.w3.org/1999/02/22-rdf-syntax-ns#"
     width="446.57mm" height="446.57mm"
     version="1.1" viewBox="28.097 17.542 446.57 446.57"
     xmlns="http://www.w3.org/2000/svg">
    <defs>
        <linearGradient id="linearGradient1427" x1="-78.922" x2="312.83" y1="-27.172" y2="358.91"
                        gradientTransform="translate(133.17 70.658)" gradientUnits="userSpaceOnUse">
            <stop stop-color="#fff" offset="0"/>
            <stop stop-color="#808080" offset="1"/>
        </linearGradient>
        <filter id="filter2163" x="-.10452" y="-.058483" width="1.209" height="1.117"
                color-interpolation-filters="sRGB">
            <feGaussianBlur stdDeviation="9.9938258"/>
        </filter>
    </defs>
    <metadata>
        <rdf:RDF>
            <cc:Work rdf:about="">
                <dc:format>image/svg+xml</dc:format>
                <dc:type rdf:resource="http://purl.org/dc/dcmitype/StillImage"/>
            </cc:Work>
        </rdf:RDF>
    </metadata>
    <g>
        <rect x="30.441" y="19.885" width="441.88" height="441.88" ry="31.647" fill="url(#linearGradient1427)"
              stroke="#000" stroke-width="4.688"/>
        <path d="m354.25 31.453a8.912 8.4725 0 0 0-7.936 4.8079l-43.634 86.538h-80.748a8.912 8.4725 0 0 0-8.9121 8.4718 8.912 8.4725 0 0 0 8.9121 8.4736h72.204l-12.074 23.944h-49.386a8.912 8.4725 0 0 0-8.9121 8.4718 8.912 8.4725 0 0 0 8.9121 8.4736h40.844l-5.9697 11.839h-25.198a8.912 8.4725 0 0 0-8.9121 8.4718 8.912 8.4725 0 0 0 8.9121 8.4736h24.533l15.824 27.074h-9e-3l-15.848 27.115h-24.532a8.912 8.4725 0 0 0-8.9121 8.4736 8.912 8.4725 0 0 0 8.9121 8.4718h25.198l5.9697 11.839h-40.844a8.912 8.4725 0 0 0-8.9121 8.4736 8.912 8.4725 0 0 0 8.9121 8.4718h49.386l12.074 23.944h-72.204a8.912 8.4725 0 0 0-8.9121 8.4736 8.912 8.4725 0 0 0 8.9121 8.4718h80.748l43.634 86.538a8.912 8.4725 0 0 0 11.888 3.9768 8.912 8.4725 0 0 0 4.1837-11.303l-45.374-89.987 55.315-94.652 61.196 0.24402a8.912 8.4725 0 0 0 8.9492-8.4364 8.912 8.4725 0 0 0 0-0.0725h0.032a8.912 8.4725 0 0 0 0-0.1132 8.912 8.4725 0 0 0-8.9492-8.4364l-61.196 0.24403-55.315-94.652 45.374-89.988a8.912 8.4725 0 0 0-4.1837-11.303 8.912 8.4725 0 0 0-3.9521-0.83109zm-46.682 120.85 44.417 76.004-24.199 0.0973-31.452-53.819zm20.187 92.315 24.199 0.0973-44.417 76.004-11.234-22.282z"/>
        <path d="m129.07 50.404a8.912 8.4725 0 0 1 7.936 4.8079l43.634 86.538h80.748a8.912 8.4725 0 0 1 8.9121 8.4718 8.912 8.4725 0 0 1-8.9121 8.4736h-72.204l12.074 23.944h49.386a8.912 8.4725 0 0 1 8.9121 8.4718 8.912 8.4725 0 0 1-8.9121 8.4736h-40.844l5.9697 11.839h25.198a8.912 8.4725 0 0 1 8.9121 8.4718 8.912 8.4725 0 0 1-8.9121 8.4736h-24.533l-15.824 27.074h9e-3l15.848 27.115h24.532a8.912 8.4725 0 0 1 8.9121 8.4736 8.912 8.4725 0 0 1-8.9121 8.4718h-25.198l-5.9697 11.839h40.844a8.912 8.4725 0 0 1 8.9121 8.4736 8.912 8.4725 0 0 1-8.9121 8.4718h-49.386l-12.074 23.944h72.204a8.912 8.4725 0 0 1 8.9121 8.4736 8.912 8.4725 0 0 1-8.9121 8.4718h-80.748l-43.634 86.538a8.912 8.4725 0 0 1-11.888 3.9768 8.912 8.4725 0 0 1-4.1837-11.303l45.374-89.987-55.315-94.652-61.196 0.24402a8.912 8.4725 0 0 1-8.9492-8.4364 8.912 8.4725 0 0 1 0-0.0725h-0.032a8.912 8.4725 0 0 1 0-0.1132 8.912 8.4725 0 0 1 8.9492-8.4364l61.196 0.24403 55.315-94.652-45.374-89.988a8.912 8.4725 0 0 1 4.1837-11.303 8.912 8.4725 0 0 1 3.9521-0.83109zm46.682 120.85-44.417 76.004 24.199 0.0973 31.452-53.819zm-20.187 92.315-24.199 0.0973 44.417 76.004 11.234-22.282z"
              filter="url(#filter2163)" opacity=".23"/>
    </g>
</svg>
