<?xml version="1.0" encoding="UTF-8"?>
<svg width="128.66mm" height="138.17mm" version="1.1" viewBox="0 0 455.91 489.6" xmlns="http://www.w3.org/2000/svg" xmlns:cc="http://creativecommons.org/ns#" xmlns:dc="http://purl.org/dc/elements/1.1/" xmlns:rdf="http://www.w3.org/1999/02/22-rdf-syntax-ns#">
 <defs>
  <filter id="filter1353" x="-.12889" y="-.072119" width="1.3498" height="1.1938" color-interpolation-filters="sRGB">
   <feFlood flood-color="rgb(0,0,0)" result="flood"/>
   <feComposite in="flood" in2="SourceGraphic" operator="in" result="composite1"/>
   <feGaussianBlur in="composite1" result="blur" stdDeviation="12.3239"/>
   <feOffset dx="21.1096" dy="20.3286" result="offset"/>
   <feComposite in="offset" in2="offset" operator="atop" result="composite2"/>
  </filter>
 </defs>
 <metadata>
  <rdf:RDF>
   <cc:Work rdf:about="">
    <dc:format>image/svg+xml</dc:format>
    <dc:type rdf:resource="http://purl.org/dc/dcmitype/StillImage"/>
   </cc:Work>
  </rdf:RDF>
 </metadata>
 <g transform="translate(3.7501 -7.5002)">
  <path d="m99.05 40.828a8.912 8.4725 0 0 1 7.936 4.8079l43.634 86.538h80.748a8.912 8.4725 0 0 1 8.9121 8.4718 8.912 8.4725 0 0 1-8.9121 8.4736h-72.204l12.074 23.944h49.386a8.912 8.4725 0 0 1 8.9121 8.4718 8.912 8.4725 0 0 1-8.9121 8.4736h-40.844l5.9697 11.839h25.198a8.912 8.4725 0 0 1 8.9121 8.4718 8.912 8.4725 0 0 1-8.9121 8.4736h-24.533l-15.824 27.074h9e-3l15.848 27.115h24.532a8.912 8.4725 0 0 1 8.9121 8.4736 8.912 8.4725 0 0 1-8.9121 8.4718h-25.198l-5.9697 11.839h40.844a8.912 8.4725 0 0 1 8.9121 8.4736 8.912 8.4725 0 0 1-8.9121 8.4718h-49.386l-12.074 23.944h72.204a8.912 8.4725 0 0 1 8.9121 8.4736 8.912 8.4725 0 0 1-8.9121 8.4718h-80.748l-43.634 86.538a8.912 8.4725 0 0 1-11.888 3.9768 8.912 8.4725 0 0 1-4.1837-11.303l45.374-89.987-55.315-94.652-61.196 0.24402a8.912 8.4725 0 0 1-8.9492-8.4364 8.912 8.4725 0 0 1 0-0.0725h-0.032a8.912 8.4725 0 0 1 0-0.1132 8.912 8.4725 0 0 1 8.9492-8.4364l61.196 0.24403 55.315-94.652-45.374-89.988a8.912 8.4725 0 0 1 4.1837-11.303 8.912 8.4725 0 0 1 3.9521-0.83109zm46.682 120.85-44.417 76.004 24.199 0.0973 31.452-53.819zm-20.187 92.315-24.199 0.0973 44.417 76.004 11.234-22.282z" filter="url(#filter1353)"/>
  <path d="m335.5 42.703a8.912 8.4725 0 0 0-7.936 4.8079l-43.634 86.538h-80.748a8.912 8.4725 0 0 0-8.9121 8.4718 8.912 8.4725 0 0 0 8.9121 8.4736h72.204l-12.074 23.944h-49.386a8.912 8.4725 0 0 0-8.9121 8.4718 8.912 8.4725 0 0 0 8.9121 8.4736h40.844l-5.9697 11.839h-25.198a8.912 8.4725 0 0 0-8.9121 8.4718 8.912 8.4725 0 0 0 8.9121 8.4736h24.533l15.824 27.074h-9e-3l-15.848 27.115h-24.532a8.912 8.4725 0 0 0-8.9121 8.4736 8.912 8.4725 0 0 0 8.9121 8.4718h25.198l5.9697 11.839h-40.844a8.912 8.4725 0 0 0-8.9121 8.4736 8.912 8.4725 0 0 0 8.9121 8.4718h49.386l12.074 23.944h-72.204a8.912 8.4725 0 0 0-8.9121 8.4736 8.912 8.4725 0 0 0 8.9121 8.4718h80.748l43.634 86.538a8.912 8.4725 0 0 0 11.888 3.9768 8.912 8.4725 0 0 0 4.1837-11.303l-45.374-89.987 55.315-94.652 61.196 0.24402a8.912 8.4725 0 0 0 8.9492-8.4364 8.912 8.4725 0 0 0 0-0.0725h0.032a8.912 8.4725 0 0 0 0-0.1132 8.912 8.4725 0 0 0-8.9492-8.4364l-61.196 0.24403-55.315-94.652 45.374-89.988a8.912 8.4725 0 0 0-4.1837-11.303 8.912 8.4725 0 0 0-3.9521-0.83109zm-46.682 120.85 44.417 76.004-24.199 0.0973-31.452-53.819zm20.187 92.315 24.199 0.0973-44.417 76.004-11.234-22.282z"/>
 </g>
</svg>
