<?xml version="1.0" encoding="UTF-8"?>
<svg width="459.88" height="72" version="1.1" xml:space="preserve" xmlns="http://www.w3.org/2000/svg" xmlns:cc="http://creativecommons.org/ns#" xmlns:dc="http://purl.org/dc/elements/1.1/" xmlns:rdf="http://www.w3.org/1999/02/22-rdf-syntax-ns#"><metadata><rdf:RDF><cc:Work rdf:about=""><dc:format>image/svg+xml</dc:format><dc:type rdf:resource="http://purl.org/dc/dcmitype/StillImage"/><dc:title/></cc:Work></rdf:RDF></metadata><g transform="matrix(.42467 0 0 .42467 1.9168e-5 .00076272)"><g transform="matrix(1,0,0,-1,-136.01,440.58)"><g transform="matrix(.7537 0 0 .7537 89.524 44.829)"><g transform="translate(26.627,153.13)" fill="none" stroke="#000" stroke-width="4"><path d="m74.5 318.5c55.136 8.2335 83.507-12.592 92-55 0.31909 55.528 22.276 79.5 54.5 88.5"/><path d="m270 264.5-103.5-0.5c-12.954-38.988-35.309-66.696-88-58"/><path d="m167.5 263.5c-1.9855-53.877 19.664-77.226 49.5-90"/></g><g transform="translate(33.127,145.63)" opacity=".28774"><rect transform="scale(1,-1)" x="227.5" y="-283.5" width="80" height="40" ry="10" filter="url(#filter5182)" opacity="1"/><rect transform="scale(1,-1)" x="36.5" y="-335.5" width="80" height="40" ry="10" filter="url(#filter5198)" opacity="1"/><rect transform="scale(1,-1)" x="181" y="-370.5" width="80" height="40" ry="10" filter="url(#filter5202)" opacity="1"/><rect transform="scale(1,-1)" x="180.5" y="-194.5" width="80" height="40" ry="10" filter="url(#filter5190)" opacity="1"/><rect transform="scale(1,-1)" x="37.5" y="-227.5" width="80" height="40" ry="10" filter="url(#filter5194)" opacity="1"/><rect transform="scale(1,-1)" x="120.5" y="-295.5" width="90" height="60" ry="10" filter="url(#filter5186)" opacity="1"/></g><g transform="translate(26.627,153.13)" stroke="#000" stroke-linecap="square" stroke-linejoin="round" stroke-width="2.9"><g fill="#44d4fc"><rect transform="scale(1,-1)" x="227.5" y="-283.5" width="80" height="40" ry="10"/><rect transform="scale(1,-1)" x="36.5" y="-335.5" width="80" height="40" ry="10"/><rect transform="scale(1,-1)" x="181" y="-370.5" width="80" height="40" ry="10"/><rect transform="scale(1,-1)" x="180.5" y="-194.5" width="80" height="40" ry="10"/><rect transform="scale(1,-1)" x="37.5" y="-227.5" width="80" height="40" ry="10"/></g><rect transform="scale(1,-1)" x="120.5" y="-295.5" width="90" height="60" ry="10" fill="#00f"/></g></g><g transform="matrix(.51026 0 0 -.51026 265.27 416.97)" fill="#ff8080" stroke="#800000" stroke-width="8.8"><path d="m335.81 266.61q-40.971 0-69.773-17.849-28.599-17.849-43.202-49.49-14.604-31.844-14.604-72.207 0-43.202 19.066-76.06t52.329-53.546q33.264-20.891 76.06-29.41 5.882 2.8396 20.283 10.953 14.604 7.9103 30.018 15.415 15.415 7.3018 27.382 11.764 11.967 4.2594 19.471 4.2594 26.773 0 36.306-31.641l5.6792 5.0707q-4.2594 15.618-12.778 26.976-8.5188 11.156-20.688 18.863-11.967 7.7074-28.396 13.995-13.589-1.4198-53.141-24.542-42.188-24.542-59.428-24.542-26.57 0-53.141 26.57-14.401 14.604-21.5 34.886-7.099 20.08-7.099 42.391 0 38.74 15.618 72.612 15.618 33.669 45.028 53.749 29.613 19.877 69.773 19.877 24.948 0 46.042-7.9103 21.297-7.9103 33.872-24.948 12.575-17.24 12.575-43.202 0-15.415-6.0848-27.787-5.882-12.372-17.646-19.471-11.561-7.099-26.773-7.099-13.589 0-46.65 6.0848-31.438 6.6933-48.476 6.6933-17.24 0-28.599-8.3159-11.358-8.3159-11.358-24.542 0-18.052 13.387-31.033 13.589-13.184 32.25-18.254l5.4763 4.8679q-9.5329 2.6368-15.009 10.75-5.2735 8.1131-5.2735 18.052 0 11.358 7.099 17.849 7.3018 6.4905 19.471 6.4905 11.764 0 48.476-8.7216 41.58-8.7216 53.141-8.7216 12.778 0 22.919 3.6509 10.344 3.6509 18.052 11.156 7.9103 7.3018 12.17 17.443t4.2594 23.122q0 31.438-13.184 55.372t-35.089 39.349-50.098 23.122q-27.99 7.9103-58.211 7.9103z"/><path d="m556.89 220.97q-2.2311-32.655-2.2311-53.546 0-39.146 5.0707-62.674l68.556-42.797q18.457 1.4198 44.825 18.254l-21.5 32.858-4.2594 1.217q-23.325-20.891-49.084-20.891-6.6933 11.967-8.3159 27.787t-1.6226 37.929q0 14.198 1.8254 36.509 8.5188 9.3301 17.849 18.254 9.3301 8.7216 18.66 17.443 6.6933-1.8254 12.778-4.665 6.2876-2.8396 12.778-6.2876 6.4905-3.6509 18.052-10.141l3.6509 7.099-71.395 50.098q-11.967-10.141-21.703-20.08-9.7357-10.141-23.934-26.368z"/><path d="m724.02 232.53q3.4481-24.339 3.4481-56.792 0-33.872-4.2594-72.815-3.6509-4.8679-8.3159-9.5329-3.2452 0.81131-17.443 8.7216l-5.2735-5.2735q20.891-17.443 43.608-38.334 13.184 13.792 24.948 22.514-5.4763 40.971-5.4763 77.683 0 16.023 0.81131 26.165 0.81131 10.141 4.665 20.688 3.8537 10.547 11.967 18.66 0.81131 0 1.6226-0.81131 1.0141-1.0141 2.0283-1.217l18.457-9.1272 2.8396 7.9103q-25.759 23.934-51.518 43.202zm16.226-207.7q-11.561-10.547-24.136-25.759 4.0566-4.0565 11.967-10.953 8.1131-6.8961 12.981-12.575 16.023 18.863 22.92 23.934z"/><path d="m866.61 270.46q-18.66-19.471-36.103-41.985-1.217-19.471-1.217-38.74 0-46.65 8.7216-85.999l69.773-44.014q18.457 12.981 38.74 16.632l27.382-13.995 3.2452 2.4339q-7.5046 51.315-7.5046 84.376 0 6.2876 0.20283 16.023 0.40566 9.7357 1.0141 20.688 0.60848 10.75 1.0141 20.08l14.401 18.66 20.486-9.9385 2.0282 6.2876-51.112 45.636-17.849-30.221q0-3.2452-0.40565-9.5329-0.40566-6.2876-0.40566-9.1272zm-2.8396-65.31q4.2594 5.4763 14.401 16.226 10.344 10.75 11.764 10.75 3.0424 0 5.4763-1.217 11.561-7.099 20.283-12.17 8.7216-5.0707 23.325-13.995l-0.40565-101.01q-12.778 0-24.339-2.4339-11.358-2.4339-34.683-8.7216-17.038 17.849-17.038 79.306 0 16.429 1.217 33.264z"/></g><g transform="matrix(.51026 0 0 -.51026 705.88 681.93)" fill="#ff8080" stroke="#800000" stroke-width="8.8"><path d="m198.7 781.38-6.6933-6.6933q12.372-16.429 27.179-30.221 15.009-13.792 28.193-13.792 9.9385 0 31.033 24.542 16.632-9.9385 26.976-24.745 10.547-14.806 15.009-31.641 4.4622-16.835 5.4763-33.872 1.217-17.24 1.217-42.797 0-30.627-7.099-52.735-3.2452-11.156-8.9244-20.688-5.4763-9.7357-13.184-17.443-7.5046-7.9103-18.052-12.575-10.344-4.8678-21.297-4.8678-9.5329 0-18.863 4.2594t-15.212 11.967-5.882 17.038q0 13.184 20.08 35.292 19.471 22.717 19.471 35.292 0 15.618-13.589 29.613-13.387 13.792-32.452 25.962l-8.7216-6.4905q10.547-6.2876 17.24-14.604 6.6933-8.3159 6.6933-18.66 0-5.0707-17.443-28.802-17.849-23.325-17.849-33.061 0-15.821 8.3159-30.424 8.3159-14.604 22.514-26.368 14.401-11.967 30.627-18.457 16.429-6.6933 31.641-6.6933 16.226 0 30.627 7.5046t24.745 20.486q10.547 12.778 16.023 28.599l1.217-3.8537q21.094-24.745 40.565-38.74t43.405-13.995q17.24 0 24.136 10.547 6.8961 10.547 9.1272 29.41 0.40565 3.0424 1.217 10.953 0.81131 7.9103 2.6368 12.17 2.0283 4.0566 6.2876 6.4905 4.2594 2.2311 12.372 2.2311 6.6933 0 12.778-1.217l4.665 6.6933q-45.028 16.835-81.942 46.447 19.066 0 37.32 15.415 0.40565 7.7074 1.0141 19.269 0.60849 11.561 1.4198 26.368 1.0141 14.604 2.0283 23.528 1.0141 8.7216 2.2311 12.778 11.156 35.292 22.108 35.292 2.8396 0 24.136-8.7216v6.4905l-54.966 41.985-26.57-48.476q0.40566-9.5329 0.81131-20.486 0.40566-10.953 0.40566-17.443 0-22.92-2.2311-35.9-2.2311-12.981-12.17-21.5-9.9386-8.5188-30.83-8.5188-12.981 0-37.726 6.4905l-0.81131-0.81131q-3.2452 25.151-10.344 47.867-7.099 22.514-19.674 41.58-15.415 12.575-24.948 20.486-9.3301 7.9103-19.066 16.226-9.7357 8.1131-24.542 20.486-10.141-10.141-17.646-16.023-7.3018-5.882-12.981-5.882-17.443 0-31.235 17.443zm161.65-152.53 39.349-15.415q61.051-30.221 61.862-31.033-7.7074-1.217-11.764-4.0565-4.0566-2.8396-5.882-7.7074t-2.8396-12.17q-0.81131-7.5046-1.4198-11.358-4.8679-33.264-24.542-33.264-11.967 0-21.905 8.7216-9.7357 8.5188-17.038 20.688-7.3018 12.17-13.792 25.759l-0.81131 1.217q0.81131 10.953 0.81131 16.632 0 24.542-2.0283 41.985z"/><path d="m556.48 739.4q-2.6368-21.703-2.6368-45.231 0-33.264 5.882-71.598l67.339-41.782q10.547 13.387 22.514 24.339 12.17 10.75 26.368 20.891-63.891 60.443-88.433 79.711 0 4.2594 0.81131 11.561 21.905 22.717 42.797 32.047 3.8537 0 5.882-0.81131l34.481-16.632 2.0283 6.6933q-36.712 28.599-70.178 48.881-32.655-30.018-46.853-48.07zm30.221-51.924q36.712-23.325 55.372-42.797-26.57-16.632-44.216-34.886-6.8961 0-9.1272 26.773-2.0283 26.773-2.0283 50.91z"/><path d="m737.2 748.93 1.217-120.89h-36.509l15.415-15.009h22.108q0-8.5188 0.40566-25.151 0.40565-16.632 0.40565-24.948 0-12.981-0.40565-19.674l46.042-34.481 5.4763 5.4763-11.358 10.75q-7.5046 7.9103-7.5046 88.027h44.014l-12.372 15.009h-32.047q0 76.06 0.81131 95.532 4.665 4.4622 10.75 9.9386 6.0848 5.4763 11.764 9.3301 5.882 3.6509 10.344 3.6509 1.6226 0 2.6368-0.40565l26.165-12.981 1.6226 9.1272-56.994 41.174z"/><path d="m857.68 746.5v-12.575q0-52.329 7.099-110.34 34.886-19.269 73.018-48.679 31.235 21.094 61.254 27.787 2.0283 26.368 2.0283 47.056 0 45.433-8.7216 86.81-15.009 9.3301-23.731 14.604-8.5188 5.0707-21.703 12.17-12.981 7.099-23.122 11.764-10.141 4.8679-25.353 11.156-17.849-15.821-25.353-23.122-7.5046-7.3018-15.415-16.632zm35.698-22.92q10.344 11.764 23.934 22.514 13.792 10.75 23.934 10.75 2.4339 0 9.1272-8.3159 7.5046-8.1131 10.547-18.457 3.2452-10.344 5.2735-25.556 3.2452-19.471 3.2452-44.419 0-16.429-1.217-33.264-8.3159-0.60848-18.457-3.0424t-18.863-5.0707q-8.5188-2.8396-24.948-8.9244-9.9386 12.372-13.589 29.207-3.4481 16.835-3.4481 37.32 0 22.311 4.4622 47.259z"/></g><text transform="scale(1,-1)" x="278.9689" y="-169.21994" fill="#ffffff" font-family="sans-serif" letter-spacing="0px" stroke-width="1px" word-spacing="0px" style="line-height:0%" xml:space="preserve"><tspan x="278.9689" y="-169.21994" font-family="'Century Schoolbook L'" font-size="14.758px" font-weight="500" style="line-height:1.25">A  FREE  MIND  MAP  TOOL  SINCE  2015</tspan></text>
</g></g></svg>
