<?xml version="1.0" encoding="UTF-8"?>
<svg width="30" height="30" version="1.1" viewBox="0 0 30 30" xmlns="http://www.w3.org/2000/svg" xmlns:cc="http://creativecommons.org/ns#" xmlns:dc="http://purl.org/dc/elements/1.1/" xmlns:rdf="http://www.w3.org/1999/02/22-rdf-syntax-ns#">
 <metadata>
  <rdf:RDF>
   <cc:Work rdf:about="">
    <dc:format>image/svg+xml</dc:format>
    <dc:type rdf:resource="http://purl.org/dc/dcmitype/StillImage"/>
    <dc:title/>
   </cc:Work>
  </rdf:RDF>
 </metadata>
 <path d="m4 0c-2.216 0-4 1.784-4 4v22c0 2.216 1.784 4 4 4h22c2.216 0 4-1.784 4-4v-22c0-2.216-1.784-4-4-4h-22zm1.0254 4.6738h19.949c0.85006 0 1.5332 0.7672 1.5332 1.7207 0 0.9535-0.68314 1.7207-1.5332 1.7207h-19.949c-0.85006 0-1.5332-0.7672-1.5332-1.7207 0-0.9535 0.68314-1.7207 1.5332-1.7207zm0 8.6055h19.949c0.85006 0 1.5332 0.7672 1.5332 1.7207s-0.68314 1.7207-1.5332 1.7207h-19.949c-0.85006 0-1.5332-0.7672-1.5332-1.7207s0.68314-1.7207 1.5332-1.7207zm0 8.6055h19.949c0.85006 0 1.5332 0.7672 1.5332 1.7207 0 0.9535-0.68314 1.7207-1.5332 1.7207h-19.949c-0.85006 0-1.5332-0.7672-1.5332-1.7207 0-0.9535 0.68314-1.7207 1.5332-1.7207z" fill="#0ff"/>
</svg>
